999
Inkscape export via OpenSCAD DXF Export
  0
SECTION
  2
HEADER
  9
$ACADVER
  1
AC1014
  9
$HANDSEED
  5
FFFF
  9
$MEASUREMENT
 70
     1
  0
ENDSEC
  0
SECTION
  2
TABLES
  0
TABLE
  2
VPORT
  5
8
330
0
100
AcDbSymbolTable
 70
     4
  0
VPORT
  5
2E
330
8
100
AcDbSymbolTableRecord
100
AcDbViewportTableRecord
  2
*ACTIVE
 70
     0
 10
0.0
 20
0.0
 11
1.0
 21
1.0
 12
210.0
 22
148.5
 13
0.0
 23
0.0
 14
10.0
 24
10.0
 15
10.0
 25
10.0
 16
0.0
 26
0.0
 36
1.0
 17
0.0
 27
0.0
 37
0.0
 40
341.0
 41
1.24
 42
50.0
 43
0.0
 44
0.0
 50
0.0
 51
0.0
 71
     0
 72
   100
 73
     1
 74
     3
 75
     0
 76
     0
 77
     0
 78
     0
  0
ENDTAB
  0
TABLE
  2
LTYPE
  5
5
330
0
100
AcDbSymbolTable
 70
     1
  0
LTYPE
  5
14
330
5
100
AcDbSymbolTableRecord
100
AcDbLinetypeTableRecord
  2
BYBLOCK
 70
     0
  3

 72
    65
 73
     0
 40
0.0
  0
LTYPE
  5
15
330
5
100
AcDbSymbolTableRecord
100
AcDbLinetypeTableRecord
  2
BYLAYER
 70
     0
  3

 72
    65
 73
     0
 40
0.0
  0
LTYPE
  5
16
330
5
100
AcDbSymbolTableRecord
100
AcDbLinetypeTableRecord
  2
CONTINUOUS
 70
     0
  3
Solid line
 72
    65
 73
     0
 40
0.0
  0
ENDTAB
  0
TABLE
0
TABLE
2
LAYER
5
2
330
0
100
AcDbSymbolTable
70
1
0
LAYER
5
10
330
2
100
AcDbSymbolTableRecord
100
AcDbLayerTableRecord
2
Layer_1
70
0
62
7
6
CONTINUOUS
0
ENDTAB
0
ENDSEC
  0
ENDTAB
  0
TABLE
  2
STYLE
  5
3
330
0
100
AcDbSymbolTable
 70
     1
  0
STYLE
  5
11
330
3
100
AcDbSymbolTableRecord
100
AcDbTextStyleTableRecord
  2
STANDARD
 70
     0
 40
0.0
 41
1.0
 50
0.0
 71
     0
 42
2.5
  3
txt
  4

  0
ENDTAB
  0
TABLE
  2
VIEW
  5
6
330
0
100
AcDbSymbolTable
 70
     0
  0
ENDTAB
  0
TABLE
  2
UCS
  5
7
330
0
100
AcDbSymbolTable
 70
     0
  0
ENDTAB
  0
TABLE
  2
APPID
  5
9
330
0
100
AcDbSymbolTable
 70
     2
  0
APPID
  5
12
330
9
100
AcDbSymbolTableRecord
100
AcDbRegAppTableRecord
  2
ACAD
 70
     0
  0
ENDTAB
  0
TABLE
  2
DIMSTYLE
  5
A
330
0
100
AcDbSymbolTable
 70
     1
  0
DIMSTYLE
105
27
330
A
100
AcDbSymbolTableRecord
100
AcDbDimStyleTableRecord
  2
ISO-25
 70
     0
  3

  4

  5

  6

  7

 40
1.0
 41
2.5
 42
0.625
 43
3.75
 44
1.25
 45
0.0
 46
0.0
 47
0.0
 48
0.0
140
2.5
141
2.5
142
0.0
143
0.03937007874016
144
1.0
145
0.0
146
1.0
147
0.625
 71
     0
 72
     0
 73
     0
 74
     0
 75
     0
 76
     0
 77
     1
 78
     8
170
     0
171
     3
172
     1
173
     0
174
     0
175
     0
176
     0
177
     0
178
     0
270
     2
271
     2
272
     2
273
     2
274
     3
340
11
275
     0
280
     0
281
     0
282
     0
283
     0
284
     8
285
     0
286
     0
287
     3
288
     0
  0
ENDTAB
  0
TABLE
  2
BLOCK_RECORD
  5
1
330
0
100
AcDbSymbolTable
 70
     1
  0
BLOCK_RECORD
  5
1F
330
1
100
AcDbSymbolTableRecord
100
AcDbBlockTableRecord
  2
*MODEL_SPACE
  0
BLOCK_RECORD
  5
1B
330
1
100
AcDbSymbolTableRecord
100
AcDbBlockTableRecord
  2
*PAPER_SPACE
  0
ENDTAB
  0
ENDSEC
  0
SECTION
  2
BLOCKS
  0
BLOCK
  5
20
330
1F
100
AcDbEntity
  8
0
100
AcDbBlockBegin
  2
*MODEL_SPACE
 70
     0
 10
0.0
 20
0.0
 30
0.0
  3
*MODEL_SPACE
  1

  0
ENDBLK
  5
21
330
1F
100
AcDbEntity
  8
0
100
AcDbBlockEnd
  0
BLOCK
  5
1C
330
1B
100
AcDbEntity
 67
     1
  8
0
100
AcDbBlockBegin
  2
*PAPER_SPACE
  1

  0
ENDBLK
  5
1D
330
1B
100
AcDbEntity
 67
     1
  8
0
100
AcDbBlockEnd
  0
ENDSEC
  0
SECTION
  2
ENTITIES
0
DIMENSION
5
83
100
AcDbEntity
62
256
370
-1
6
ByLayer
1
total_width
3
Standard
70
0
71
5
72
1
41
1.0
100
AcDbAlignedDimension
13
0.000000
23
0.000000
33
0.0
14
434.992498
24
0.000000
34
0.0
50
0.000000
100
AcDbRotatedDimension
0
DIMENSION
5
83
100
AcDbEntity
62
256
370
-1
6
ByLayer
1
total_minx
3
Standard
70
0
71
5
72
1
41
1.0
100
AcDbAlignedDimension
13
0.000000
23
0.000000
33
0.0
14
0.000000
24
0.000000
34
0.0
50
0.000000
100
AcDbRotatedDimension
0
DIMENSION
5
83
100
AcDbEntity
62
256
370
-1
6
ByLayer
1
total_maxx
3
Standard
70
0
71
5
72
1
41
1.0
100
AcDbAlignedDimension
13
0.000000
23
0.000000
33
0.0
14
434.992498
24
0.000000
34
0.0
50
0.000000
100
AcDbRotatedDimension
0
DIMENSION
5
83
100
AcDbEntity
62
256
370
-1
6
ByLayer
1
total_height
3
Standard
70
0
71
5
72
1
41
1.0
100
AcDbAlignedDimension
13
0.000000
23
0.000006
33
0.0
14
0.000000
24
339.565550
34
0.0
50
90.000000
100
AcDbRotatedDimension
0
DIMENSION
5
83
100
AcDbEntity
62
256
370
-1
6
ByLayer
1
total_miny
3
Standard
70
0
71
5
72
1
41
1.0
100
AcDbAlignedDimension
13
0.000006
23
0.000000
33
0.0
14
0.000000
24
0.000000
34
0.0
50
0.000000
100
AcDbRotatedDimension
0
DIMENSION
5
83
100
AcDbEntity
62
256
370
-1
6
ByLayer
1
total_maxy
3
Standard
70
0
71
5
72
1
41
1.0
100
AcDbAlignedDimension
13
0.000000
23
0.000000
33
0.0
14
339.565550
24
0.000000
34
0.0
50
0.000000
100
AcDbRotatedDimension
0
DIMENSION
8
Layer_1
5
83
100
AcDbEntity
62
256
370
-1
6
ByLayer
1
Layer_1_width
3
Standard
70
0
71
5
72
1
41
1.0
100
AcDbAlignedDimension
13
0.000000
23
0.000000
33
0.0
14
434.992498
24
0.000000
34
0.0
50
0.000000
100
AcDbRotatedDimension
0
DIMENSION
8
Layer_1
5
83
100
AcDbEntity
62
256
370
-1
6
ByLayer
1
Layer_1_minx
3
Standard
70
0
71
5
72
1
41
1.0
100
AcDbAlignedDimension
13
0.000000
23
0.000000
33
0.0
14
0.000000
24
0.000000
34
0.0
50
0.000000
100
AcDbRotatedDimension
0
DIMENSION
8
Layer_1
5
83
100
AcDbEntity
62
256
370
-1
6
ByLayer
1
Layer_1_maxx
3
Standard
70
0
71
5
72
1
41
1.0
100
AcDbAlignedDimension
13
0.000000
23
0.000000
33
0.0
14
434.992498
24
0.000000
34
0.0
50
0.000000
100
AcDbRotatedDimension
0
DIMENSION
8
Layer_1
5
83
100
AcDbEntity
62
256
370
-1
6
ByLayer
1
Layer_1_height
3
Standard
70
0
71
5
72
1
41
1.0
100
AcDbAlignedDimension
13
0.000000
23
0.000006
33
0.0
14
0.000000
24
339.565550
34
0.0
50
90.000000
100
AcDbRotatedDimension
0
DIMENSION
8
Layer_1
5
83
100
AcDbEntity
62
256
370
-1
6
ByLayer
1
Layer_1_miny
3
Standard
70
0
71
5
72
1
41
1.0
100
AcDbAlignedDimension
13
0.000006
23
0.000000
33
0.0
14
0.000000
24
0.000000
34
0.0
50
0.000000
100
AcDbRotatedDimension
0
DIMENSION
8
Layer_1
5
83
100
AcDbEntity
62
256
370
-1
6
ByLayer
1
Layer_1_maxy
3
Standard
70
0
71
5
72
1
41
1.0
100
AcDbAlignedDimension
13
0.000000
23
0.000000
33
0.0
14
339.565550
24
0.000000
34
0.0
50
0.000000
100
AcDbRotatedDimension
62
0
0
LWPOLYLINE
100
AcDbPolyline
8
Layer_1
90
12
70
0
10
434.992498
20
127.118539
30
0.0
10
417.727271
20
176.009588
30
0.0
10
416.904858
20
166.726535
30
0.0
10
415.791773
20
157.960604
30
0.0
10
414.387568
20
149.704485
30
0.0
10
412.691792
20
141.950869
30
0.0
10
410.703995
20
134.692447
30
0.0
10
408.423727
20
127.921911
30
0.0
10
405.850540
20
121.631950
30
0.0
10
402.983982
20
115.815257
30
0.0
10
434.992498
20
127.118539
30
0.0
10
434.992498
20
127.118539
30
0.0
62
0
0
LWPOLYLINE
100
AcDbPolyline
8
Layer_1
90
64
70
0
10
222.563267
20
291.042237
30
0.0
10
144.912644
20
263.620961
30
0.0
10
150.855016
20
262.699238
30
0.0
10
156.545359
20
261.362595
30
0.0
10
161.965550
20
259.614818
30
0.0
10
167.097463
20
257.459697
30
0.0
10
171.922976
20
254.901021
30
0.0
10
176.423964
20
251.942577
30
0.0
10
180.582303
20
248.588154
30
0.0
10
184.379870
20
244.841542
30
0.0
10
187.798540
20
240.706527
30
0.0
10
190.820190
20
236.186900
30
0.0
10
193.426695
20
231.286447
30
0.0
10
195.599932
20
226.008959
30
0.0
10
197.321776
20
220.358222
30
0.0
10
198.574104
20
214.338027
30
0.0
10
199.338792
20
207.952161
30
0.0
10
199.597716
20
201.204412
30
0.0
10
199.597716
20
187.919083
30
0.0
10
199.504648
20
183.344841
30
0.0
10
199.220457
20
178.949736
30
0.0
10
198.737658
20
174.737263
30
0.0
10
198.048770
20
170.710914
30
0.0
10
197.146308
20
166.874184
30
0.0
10
196.022790
20
163.230566
30
0.0
10
194.670732
20
159.783554
30
0.0
10
193.082651
20
156.536642
30
0.0
10
191.251064
20
153.493324
30
0.0
10
189.168488
20
150.657093
30
0.0
10
186.827440
20
148.031443
30
0.0
10
184.220436
20
145.619868
30
0.0
10
181.339994
20
143.425861
30
0.0
10
178.178630
20
141.452917
30
0.0
10
174.728861
20
139.704529
30
0.0
10
170.983204
20
138.184190
30
0.0
10
174.841180
20
136.756703
30
0.0
10
178.374315
20
135.035816
30
0.0
10
181.593086
20
133.031507
30
0.0
10
184.507972
20
130.753755
30
0.0
10
187.129453
20
128.212538
30
0.0
10
189.468005
20
125.417832
30
0.0
10
191.534107
20
122.379618
30
0.0
10
193.338238
20
119.107873
30
0.0
10
194.890876
20
115.612574
30
0.0
10
196.202500
20
111.903701
30
0.0
10
197.283586
20
107.991230
30
0.0
10
198.144615
20
103.885141
30
0.0
10
198.796064
20
99.595411
30
0.0
10
199.248412
20
95.132019
30
0.0
10
199.512136
20
90.504942
30
0.0
10
199.597716
20
85.724159
30
0.0
10
199.597716
20
75.845534
30
0.0
10
199.469415
20
70.835914
30
0.0
10
199.087034
20
66.016321
30
0.0
10
198.454358
20
61.388584
30
0.0
10
197.575170
20
56.954531
30
0.0
10
196.453253
20
52.715993
30
0.0
10
195.092391
20
48.674797
30
0.0
10
193.496367
20
44.832773
30
0.0
10
191.668964
20
41.191750
30
0.0
10
301.273069
20
79.896834
30
0.0
10
222.563549
20
79.896834
30
0.0
10
222.563549
20
291.042237
30
0.0
10
222.563267
20
291.042237
30
0.0
62
0
0
LWPOLYLINE
100
AcDbPolyline
8
Layer_1
90
37
70
0
10
354.304318
20
200.100641
30
0.0
10
354.196434
20
210.809366
30
0.0
10
353.875690
20
220.349366
30
0.0
10
353.346451
20
228.786574
30
0.0
10
352.613079
20
236.186924
30
0.0
10
351.679939
20
242.616349
30
0.0
10
350.551393
20
248.140782
30
0.0
10
349.231806
20
252.826157
30
0.0
10
347.725541
20
256.738408
30
0.0
10
346.036962
20
259.943467
30
0.0
10
344.170432
20
262.507267
30
0.0
10
342.130314
20
264.495743
30
0.0
10
339.920972
20
265.974827
30
0.0
10
337.546771
20
267.010453
30
0.0
10
335.012072
20
267.668554
30
0.0
10
332.321241
20
268.015063
30
0.0
10
329.478640
20
268.115914
30
0.0
10
286.778982
20
268.115914
30
0.0
10
286.778982
20
134.575979
30
0.0
10
329.478640
20
134.575979
30
0.0
10
332.866696
20
134.795378
30
0.0
10
335.962376
20
135.463322
30
0.0
10
338.775863
20
136.594436
30
0.0
10
341.317337
20
138.203341
30
0.0
10
343.596982
20
140.304661
30
0.0
10
345.624978
20
142.913018
30
0.0
10
347.411509
20
146.043035
30
0.0
10
348.966755
20
149.709334
30
0.0
10
350.300898
20
153.926539
30
0.0
10
351.424121
20
158.709272
30
0.0
10
352.346606
20
164.072157
30
0.0
10
353.078534
20
170.029815
30
0.0
10
353.630087
20
176.596870
30
0.0
10
354.011448
20
183.787944
30
0.0
10
354.232797
20
191.617660
30
0.0
10
354.304318
20
200.100641
30
0.0
10
354.304318
20
200.100641
30
0.0
62
0
0
LWPOLYLINE
100
AcDbPolyline
8
Layer_1
90
67
70
0
10
133.511713
20
87.768294
30
0.0
10
133.511713
20
90.834074
30
0.0
10
133.399275
20
93.600309
30
0.0
10
133.059297
20
96.037692
30
0.0
10
132.487787
20
98.168682
30
0.0
10
131.680753
20
100.015733
30
0.0
10
130.634201
20
101.601304
30
0.0
10
129.344139
20
102.947850
30
0.0
10
127.806574
20
104.077828
30
0.0
10
126.017514
20
105.013695
30
0.0
10
123.972965
20
105.777906
30
0.0
10
121.668936
20
106.392919
30
0.0
10
119.101432
20
106.881190
30
0.0
10
116.266463
20
107.265176
30
0.0
10
109.778153
20
107.810116
30
0.0
10
102.172064
20
108.207392
30
0.0
10
46.646253
20
110.591606
30
0.0
10
46.646253
20
164.414206
30
0.0
10
102.172064
20
167.820628
30
0.0
10
110.296435
20
168.188642
30
0.0
10
117.091456
20
168.656433
30
0.0
10
122.632980
20
169.419612
30
0.0
10
124.957385
20
169.973100
30
0.0
10
126.996860
20
170.673789
30
0.0
10
128.760888
20
171.546129
30
0.0
10
130.258950
20
172.614572
30
0.0
10
131.500526
20
173.903569
30
0.0
10
132.495100
20
175.437572
30
0.0
10
133.252153
20
177.241031
30
0.0
10
133.781166
20
179.338398
30
0.0
10
134.091620
20
181.754125
30
0.0
10
134.192998
20
184.512661
30
0.0
10
134.192998
20
187.578441
30
0.0
10
134.027993
20
190.636586
30
0.0
10
133.543624
20
193.312993
30
0.0
10
132.755861
20
195.633112
30
0.0
10
131.680673
20
197.622390
30
0.0
10
130.334029
20
199.306279
30
0.0
10
128.731899
20
200.710226
30
0.0
10
126.890251
20
201.859682
30
0.0
10
124.825054
20
202.780094
30
0.0
10
122.552279
20
203.496913
30
0.0
10
120.087895
20
204.035588
30
0.0
10
117.447870
20
204.421567
30
0.0
10
114.648174
20
204.680301
30
0.0
10
108.633646
20
204.917827
30
0.0
10
102.172064
20
204.951759
30
0.0
10
23.482300
20
204.951759
30
0.0
10
23.482300
20
220.739552
30
0.0
10
0.000000
20
212.447017
30
0.0
10
49.802909
20
71.417186
30
0.0
10
100.128211
20
71.417186
30
0.0
10
109.191262
20
71.463081
30
0.0
10
116.553761
20
71.720535
30
0.0
10
119.644705
20
71.984736
30
0.0
10
122.367394
20
72.369194
30
0.0
10
124.740790
20
72.896367
30
0.0
10
126.783853
20
73.588709
30
0.0
10
128.515544
20
74.468677
30
0.0
10
129.954825
20
75.558728
30
0.0
10
131.120657
20
76.881316
30
0.0
10
132.032000
20
78.458899
30
0.0
10
132.707816
20
80.313932
30
0.0
10
133.167067
20
82.468872
30
0.0
10
133.428712
20
84.946174
30
0.0
10
133.511713
20
87.768294
30
0.0
10
133.511713
20
87.768294
30
0.0
62
0
0
LWPOLYLINE
100
AcDbPolyline
8
Layer_1
90
4
70
0
10
70.854711
20
11.803668
30
0.0
10
75.022851
20
0.000006
30
0.0
10
108.447840
20
11.803668
30
0.0
10
70.854711
20
11.803668
30
0.0
62
0
0
LWPOLYLINE
100
AcDbPolyline
8
Layer_1
90
13
70
0
10
367.758416
20
317.509601
30
0.0
10
359.969647
20
339.565550
30
0.0
10
312.479267
20
322.795059
30
0.0
10
336.099009
20
322.795059
30
0.0
10
340.583433
20
322.709055
30
0.0
10
344.912346
20
322.452997
30
0.0
10
349.088217
20
322.029814
30
0.0
10
353.113516
20
321.442438
30
0.0
10
356.990716
20
320.693799
30
0.0
10
360.722285
20
319.786826
30
0.0
10
364.310695
20
318.724450
30
0.0
10
367.758416
20
317.509601
30
0.0
10
367.758416
20
317.509601
30
0.0
  0
ENDSEC
  0
SECTION
  2
OBJECTS
  0
DICTIONARY
  5
C
330
0
100
AcDbDictionary
  3
ACAD_GROUP
350
D
  3
ACAD_MLINESTYLE
350
17
  0
DICTIONARY
  5
D
330
C
100
AcDbDictionary
  0
DICTIONARY
  5
1A
330
C
100
AcDbDictionary
  0
DICTIONARY
  5
17
330
C
100
AcDbDictionary
  3
STANDARD
350
18
  0
DICTIONARY
  5
19
330
C
100
AcDbDictionary
  0
ENDSEC
  0
EOF
