<?xml version="1.0" encoding="UTF-8" standalone="no"?>
<!-- Generator: Adobe Illustrator 17.0.0, SVG Export Plug-In . SVG Version: 6.00 Build 0)  -->

<svg
   xmlns:dc="http://purl.org/dc/elements/1.1/"
   xmlns:cc="http://creativecommons.org/ns#"
   xmlns:rdf="http://www.w3.org/1999/02/22-rdf-syntax-ns#"
   xmlns:svg="http://www.w3.org/2000/svg"
   xmlns="http://www.w3.org/2000/svg"
   xmlns:sodipodi="http://sodipodi.sourceforge.net/DTD/sodipodi-0.dtd"
   xmlns:inkscape="http://www.inkscape.org/namespaces/inkscape"
   version="1.1"
   id="Layer_1"
   x="0px"
   y="0px"
   width="434.99249mm"
   height="339.56555mm"
   viewBox="0 0 1541.3119 1203.185"
   enable-background="new 0 0 5096.659 1203.185"
   xml:space="preserve"
   inkscape:version="0.91 r13725"
   sodipodi:docname="S3DT.svg"><metadata
     id="metadata3414"><rdf:RDF><cc:Work
         rdf:about=""><dc:format>image/svg+xml</dc:format><dc:type
           rdf:resource="http://purl.org/dc/dcmitype/StillImage" /><dc:title></dc:title></cc:Work></rdf:RDF></metadata><defs
     id="defs3412" /><sodipodi:namedview
     pagecolor="#ffffff"
     bordercolor="#666666"
     borderopacity="1"
     objecttolerance="10"
     gridtolerance="10"
     guidetolerance="10"
     inkscape:pageopacity="0"
     inkscape:pageshadow="2"
     inkscape:window-width="1280"
     inkscape:window-height="706"
     id="namedview3410"
     showgrid="false"
     units="mm"
     borderlayer="false"
     inkscape:document-units="px"
     fit-margin-top="0"
     fit-margin-left="0"
     fit-margin-right="0"
     fit-margin-bottom="0"
     inkscape:zoom="0.08260313"
     inkscape:cx="797.57659"
     inkscape:cy="601.5925"
     inkscape:window-x="0"
     inkscape:window-y="0"
     inkscape:window-maximized="1"
     inkscape:current-layer="Layer_1" /><path
     d="m 1541.312,752.765 -61.176,-173.236 c -6.399,90.18 -23.767,160.539 -52.24,213.287 l 113.416,-40.051 z"
     id="path3398"
     inkscape:connector-curvature="0" /><path
     d="m 788.61,171.933 -275.14,97.162 c 114.564,13.474 193.766,90.249 193.766,221.161 l 0,47.074 c 0,88.113 -27.763,149.672 -101.39,176.226 76.042,24.141 101.39,94.147 101.39,185.882 l 0,35.003 c 0,48.227 -9.746,89.341 -28.094,122.789 l 388.361,-137.144 -278.892,0 0,-748.153 z"
     id="path3400"
     inkscape:connector-curvature="0" /><path
     d="m 1255.409,494.167 c 0,-213.828 -32.84,-240.999 -87.965,-240.999 l -151.298,0 0,473.173 151.298,0 c 66.853,0 87.965,-65.601 87.965,-232.174 z"
     id="path3402"
     inkscape:connector-curvature="0" /><path
     d="m 473.073,892.195 0,-10.863 c 0,-55.524 -33.796,-57.937 -111.046,-61.559 l -196.745,-8.448 0,-190.71 196.745,-12.07 c 83.285,-3.622 113.46,-3.622 113.46,-59.145 l 0,-10.863 c 0,-61.559 -50.696,-61.559 -113.46,-61.559 l -278.822,0 0,-55.941 L 0,450.42 l 176.467,499.712 178.318,0 c 94.147,0 118.288,-1.206 118.288,-57.937 z"
     id="path3404"
     inkscape:connector-curvature="0" /><polygon
     points="2001.813,1161.361 2016.582,1203.185 2135.017,1161.361 "
     id="polygon3406"
     transform="translate(-1750.753,0)" /><path
     d="M 1303.081,78.151 1275.483,0 1107.21,59.423 l 83.692,0 c 43.115,0 80.259,6.538 112.179,18.728 z"
     id="path3408"
     inkscape:connector-curvature="0" /></svg>